<svg xmlns="http://www.w3.org/2000/svg" viewBox="0 0 347 347">
    <defs>
        <style>.cls-1{fill:#0597f2;}.cls-2{stroke:#000;stroke-miterlimit:10;stroke-width:7px;}</style>
    </defs>
    <g id="Layer_2" data-name="Layer 2">
        <g id="Layer_1-2" data-name="Layer 1">
            <rect class="cls-1" width="347" height="347" rx="173.5"/>
            <path class="cls-2" d="M234.4,69.87a13,13,0,0,1-.1,1.67h.1V194a95,95,0,0,1-66,90.45,92.86,92.86,0,0,1-26.63,4.46,4.3,4.3,0,0,0,1,.07h-3.33a45.88,45.88,0,0,1-44.73-35.79,48.18,48.18,0,0,1-1.09-10A46.32,46.32,0,0,1,94.73,233,58.63,58.63,0,0,0,137,253.14h.44c.5,0,1.06,0,1.6,0h.73c.93,0,1.83,0,2.73-.1l1.4-.1c.87-.06,1.77-.16,2.64-.26.4,0,.83-.1,1.23-.17,1.07-.17,2.1-.33,3.13-.57h.07c1-.2,2.07-.46,3.07-.73.16,0,.33-.1.49-.13,0,0,0,0,.07,0,1.27-.26,2.5-.6,3.73-1a14.16,14.16,0,0,0,1.47-.5,54.23,54.23,0,0,0,24.46-16.13,54.88,54.88,0,0,0,11.47-21.17s0,0,0-.06a56.29,56.29,0,0,0,2-14.9V95.2a45.77,45.77,0,0,1,30.2-39.29,41.43,41.43,0,0,1,6.46-1.8Z"/>
        </g>
    </g>
</svg>