<svg xmlns="http://www.w3.org/2000/svg" viewBox="0 0 245.51 44.59">
    <defs>
        <style>.cls-1{fill:#fff;}.cls-2{fill:#0597f2;}</style>
    </defs>
    <g id="Layer_2" data-name="Layer 2">
        <g id="Layer_1-2" data-name="Layer 1">
            <path class="cls-1" d="M240.33,4.55a1.05,1.05,0,0,1-.07.5c-1.46,3.37-5,12.33-7.64,19.4-1.11,3-2.05,5.56-2.62,7.31a1.1,1.1,0,0,1,.28.56,1.15,1.15,0,0,1-.1.55c-.26.51-.46.88-.63,1.15a2.78,2.78,0,0,1-.26.37,1.45,1.45,0,0,1-.27.23,1,1,0,0,1-1,0,.92.92,0,0,1-.5-.69,1.21,1.21,0,0,1,0-.31,3.07,3.07,0,0,1,.07-.42c.06-.28.16-.63.29-1.07.54-1.75,1.65-4.82,3-8.37,2.65-7.09,6.17-16,7.67-19.48a1,1,0,0,1,.74-.56h0A.93.93,0,0,1,240.33,4.55Z"/>
            <path class="cls-1" d="M240.26,15.67a1,1,0,0,1,1.31.34,8.48,8.48,0,0,0,1.51,1.48,9.4,9.4,0,0,1,2.08,2.19,1.78,1.78,0,0,1-.85,2.76l-1,.57a24,24,0,0,1-5.13,2.48,1,1,0,0,1-1.15-.72,1,1,0,0,1,.72-1.15,23.76,23.76,0,0,0,4.63-2.28l1-.56c.11-.07.13-.12.1-.17A8.1,8.1,0,0,0,241.84,19a9,9,0,0,1-1.91-2A1,1,0,0,1,240.26,15.67Z"/>
            <path class="cls-1" d="M8.28,17.28a1,1,0,0,1-.18,1.34A52.84,52.84,0,0,1,3.23,22a21.67,21.67,0,0,1,5.48,2.46,1,1,0,0,1-1,1.63,19.06,19.06,0,0,0-6.27-2.56C.56,23.33.08,23.24,0,22.44s.37-1,1.32-1.53A46.86,46.86,0,0,0,6.94,17.1,1,1,0,0,1,8.28,17.28Zm-6.38,5c0,.3,0,.17,0,0Z"/>
            <path class="cls-2" d="M16.76,24.51a6.07,6.07,0,0,1-.54-2.92c.14-2.37,1.62-4.67,3.9-6.75a33.51,33.51,0,0,1,8.49-5.36c7-3.2,15.15-4.82,19.43-3.36a2.67,2.67,0,0,1,2,2.85C50,11.13,48,14.25,45,17.5a65.22,65.22,0,0,1-10.79,9.25C27.4,31.42,20.34,34.15,17.44,31a5.15,5.15,0,0,1-1.35-2.73A6.68,6.68,0,0,1,16.76,24.51ZM40.11,8.62a.56.56,0,0,1-.46.63c-3.56.54-11.85,5-17.36,10a22,22,0,0,0-4,4.64c-.12.2-.23.4-.34.6a6.54,6.54,0,0,0,.7,1,.55.55,0,0,1-.86.68l-.37-.5a5.08,5.08,0,0,0-.27,2.37,4,4,0,0,0,1.07,2.16c2.45,2.66,9,0,15.36-4.41a64.23,64.23,0,0,0,10.6-9.09c2.82-3.07,4.7-6,4.77-7.83a1.68,1.68,0,0,0-1.28-1.78c-4-1.37-11.88.23-18.63,3.32a32.25,32.25,0,0,0-8.2,5.18c-2.09,1.9-3.44,4-3.56,6a5.24,5.24,0,0,0,.15,1.57,23.45,23.45,0,0,1,4.11-4.75c5.65-5.2,14.22-9.74,17.93-10.3A.54.54,0,0,1,40.11,8.62Z"/>
            <path class="cls-2" d="M49.79,20.66a.54.54,0,0,1-.53.48c-2,0-3.79,3-1.75,2.78.21,0,.47-.32.82-.69a24.26,24.26,0,0,0,2.3-3.07c.43-1.6.95-3.31,1.5-5,1.67-5.16,3.73-10.23,5-11.6.52-.56,1-.69,1.42-.31a1.19,1.19,0,0,1,.3.48c.45,1.44-1.17,5.59-3.33,9.82a80.15,80.15,0,0,1-4,6.94c-.82,3.05-1.32,5.62-1.18,6.71,0,.14-.11.25-.05.24a.42.42,0,0,1,.53.36.55.55,0,0,1-.42.58c-.6.13-.92-.22-1-1a17.57,17.57,0,0,1,.64-4.8,14.8,14.8,0,0,1-1,1.23,4,4,0,0,1-1.21,1A1.72,1.72,0,0,1,46,24.71a1.36,1.36,0,0,1-.41-1.06,3.54,3.54,0,0,1,3.82-3.47A.44.44,0,0,1,49.79,20.66Zm4.88-7.48c2.07-4,3.64-7.91,3.26-9.08A.17.17,0,0,0,57.87,4s0,.1-.06.18c-1.16,1.25-3.13,6.15-4.76,11.19-.21.62-.4,1.25-.59,1.87C53.22,15.92,54,14.54,54.67,13.18Z"/>
            <path class="cls-2" d="M55.13,19.25a.55.55,0,0,1,.15.76A21.86,21.86,0,0,0,53,23.77a18.9,18.9,0,0,0,4.39-3.3.54.54,0,0,1,.8.71c-2.24,3.73-.93,3.55,1.36,0a.55.55,0,0,1,.87.66,19.53,19.53,0,0,1-2,2.38c-.7.65-1.32,1-1.77.72-.73-.36-.7-1.23-.43-2.09-1.91,1.48-4.56,3.26-4.48,1.75.07-1.22,2.73-5.21,2.73-5.22A.55.55,0,0,1,55.13,19.25Z"/>
            <path class="cls-2" d="M66.86,2.81a1,1,0,0,1,.75.31,1.35,1.35,0,0,1,.3,1,7.88,7.88,0,0,1-.41,2.12,55.11,55.11,0,0,1-2.67,6.61c-1.12,2.42-2.34,4.85-3.3,6.68-.2.39-.39.73-.56,1.06.73-.46,1.4-.85,1.81-1.07a1.54,1.54,0,0,1,.6-.21h.06a.82.82,0,0,1,.68.42.85.85,0,0,1,0,.6,3.39,3.39,0,0,1-.17.51,6.24,6.24,0,0,1-.58,1,2.44,2.44,0,0,1-.76.74.86.86,0,0,1-.21.07h0a.53.53,0,0,1-.53-.49.58.58,0,0,1,.28-.52,2.4,2.4,0,0,0,.41-.43,4.59,4.59,0,0,0,.33-.52c-.71.41-1.81,1.08-2.75,1.75l-.29.21c-.19.61-.38,1.2-.56,1.79a3.61,3.61,0,0,0,2,.56,5.57,5.57,0,0,0,1.41-.2,10.8,10.8,0,0,0,5.18-3.55.66.66,0,0,1,.37-.19h0a.53.53,0,0,1,.4.88A11.79,11.79,0,0,1,63,25.81a6.08,6.08,0,0,1-1.62.22A4.94,4.94,0,0,1,59,25.46c-.91,3.07-1.63,5.77-1.93,7.45q-.07.42-.12.75c.14-.21.31-.47.49-.79a.62.62,0,0,1,.41-.27h0a.53.53,0,0,1,.53.49.6.6,0,0,1-.07.32,9.76,9.76,0,0,1-.95,1.42,1.51,1.51,0,0,1-.42.38.76.76,0,0,1-.73,0,.74.74,0,0,1-.38-.54,2.41,2.41,0,0,1,0-.54A9.55,9.55,0,0,1,56,32.72c.33-1.83,1.1-4.68,2.07-7.92a3.9,3.9,0,0,1-.48-.51.74.74,0,0,1-.17-.5,1.11,1.11,0,0,1,.11-.4,2.69,2.69,0,0,1,.47-.61c.26-.25.58-.52.93-.8,1.37-4.34,3-9,4.36-12.6C64,7.57,64.61,6,65.14,4.91a13.19,13.19,0,0,1,.71-1.35,2.55,2.55,0,0,1,.33-.43.78.78,0,0,1,.5-.31h.18Zm-10,31.67h0S56.89,34.49,56.89,34.48ZM66.75,4.13a12.46,12.46,0,0,0-.65,1.23C65.59,6.44,65,8,64.27,9.76c-.79,2.06-1.66,4.48-2.51,7,.68-1.36,1.42-2.86,2.1-4.35a54.24,54.24,0,0,0,2.62-6.47A6.9,6.9,0,0,0,66.84,4V4ZM67,3.85l0,0Z"/>
            <path class="cls-2" d="M68.46,21.35s-1.72,2.79-.79,2.89c.32,0,.82-.37,1.35-1a9.92,9.92,0,0,0,1-1.53,3.27,3.27,0,0,1-.78-.5,2.55,2.55,0,0,1-.84-2.47,3,3,0,0,1,1.21-1.93,1.44,1.44,0,0,1,1.81,0,2.42,2.42,0,0,1,.66,2.24,7.73,7.73,0,0,1-.56,2,14.83,14.83,0,0,0,5.51-.22.55.55,0,0,1,.63.44.54.54,0,0,1-.43.63,15,15,0,0,1-6.17.14,11,11,0,0,1-1.23,1.85,3,3,0,0,1-2.3,1.4c-1.67-.19-1.25-1.93-.71-3.2.6-1.63,1.37-1.57,1.64-1.29S68.55,21.2,68.46,21.35ZM71,18.93a1.48,1.48,0,0,0-.28-1.28c-.12-.1-.31-.06-.5.07a1.9,1.9,0,0,0-.75,1.22A1.51,1.51,0,0,0,70,20.39a3.25,3.25,0,0,0,.53.35A6.91,6.91,0,0,0,71,18.93Z"/>
            <path class="cls-2" d="M78,19.66a.54.54,0,0,1,.11.76,11.53,11.53,0,0,0-2,3.64,1,1,0,0,0,0,.53h0a1.72,1.72,0,0,0,.81-.22c2.5-1.12,6-6,6.06-6.05a.55.55,0,0,1,.76-.12.54.54,0,0,1,.19.64c-.47,1.46-.95,2.84-1.43,4.15q1.74-1,3.66-1.92a.54.54,0,0,1,.73.25.55.55,0,0,1-.25.73c-1.7.84-3.27,1.69-4.74,2.54C77.61,35.37,73,41.12,69.54,43.38c-2.14,1.42-3.9,1.52-4.89.64s-1.15-2.64-.14-5c1.66-3.83,6.57-9.44,16.43-15.19q.45-1.17.9-2.43a16.25,16.25,0,0,1-4.55,4,2.69,2.69,0,0,1-1.44.29,1,1,0,0,1-.86-.74,2.09,2.09,0,0,1,0-1.11,12.84,12.84,0,0,1,2.2-4A.54.54,0,0,1,78,19.66Zm2.33,5.83c-8.83,5.34-13.25,10.45-14.78,14-.81,1.86-.77,3.19-.14,3.75s1.89.37,3.57-.74C72.08,40.4,76.33,35.19,80.29,25.49ZM76,24.59Z"/>
            <path class="cls-2" d="M89.8,21.11a7.2,7.2,0,0,0,.72-.91.56.56,0,0,1,.76-.13.55.55,0,0,1,.24.52c-.31,2.25-.4,3.1-.29,3.12a6.08,6.08,0,0,0,1.85-.92c.84-.48,1.91-1.11,3.26-1.76a.54.54,0,0,1,.73.26.55.55,0,0,1-.26.73c-1.31.63-2.36,1.24-3.18,1.72-1.19.69-1.95,1.13-2.54,1.05-.8-.11-1-.83-.87-2.54a7.69,7.69,0,0,1-4.44,2.5c-1,.1-1.47-.33-1.54-1a2.73,2.73,0,0,1,.54-1.64,5.84,5.84,0,0,1,1.38-1.43c1.17-.84,2.58-1.11,3.54.23A.72.72,0,0,1,89.8,21.11Zm-1,.41c-.49-.68-1.31-.48-2,0a4.48,4.48,0,0,0-1.11,1.15,1.69,1.69,0,0,0-.36.92c0,.05.1.07.35,0a6.21,6.21,0,0,0,3.51-1.91A.59.59,0,0,1,88.81,21.52Z"/>
            <path class="cls-2" d="M126,15a.54.54,0,0,1-.65.42c-2.93-.62-4.66-1.49-5.38-2.51-5.76-8.09,18.72-8.06,21.92-8.18.56-.22,14.59-1.4,14.43.6a.55.55,0,0,1-.59.51c-2.38-.19-11.27-1-13.61,0l-.11,0c-.19,1-.42,2.25-.66,3.45-1.9,9.52-6.08,26.36-14.25,24.73-6.79-1.35-25.7-21.41-22.64-30.14,1.39-4,9.7-5.46,15.64-2,.26.16.14.58-.1.77s-.49,0-.77-.1c-6.09-3-12.69-1.34-13.74,1.65-2.81,8.05,15.68,27.48,21.82,28.7,7.19,1.44,11.15-14.73,13-23.87.26-1.32.46-2.37.62-3.23-2.22.1-24.64,0-20,6.41.56.8,2.07,1.51,4.72,2.07A.56.56,0,0,1,126,15Z"/>
            <path class="cls-2" d="M141.32,24c.9.57,2.39.34,4.07-.25a40.46,40.46,0,0,0,5.71-2.71.54.54,0,0,1,.52.95,41.19,41.19,0,0,1-5.87,2.79c-2,.71-3.85.93-5.08.1l-.09-.07c-1.09-1.13-.79-2.8,0-4.19a6.68,6.68,0,0,1,1.31-1.6,3.41,3.41,0,0,1,1.59-.85,1.37,1.37,0,0,1,1.59.81c1.44,2.94-3.66,3.29-3.67,3.29C140.67,22.36,140.92,23.57,141.32,24Zm2.82-4.54a.38.38,0,0,0-.44-.22,2.29,2.29,0,0,0-1,.6,5.62,5.62,0,0,0-1.1,1.33l-.06.1C142.16,21.2,144.79,20.79,144.14,19.47Z"/>
            <path class="cls-2" d="M153.69,21a.53.53,0,0,1-.14-.75c.57-.85.76-1.36.71-1.6,0-.05-.17,0-.38,0a3.73,3.73,0,0,0-1.47.69c-.74.55-1.33,1.33-1.06,2a10.12,10.12,0,0,0,1.26,1.94l.13.15c3.23-1.34,6.2-2.39,6.22-2.4a.55.55,0,1,1,.37,1s-3,1.05-6,2.26a4.34,4.34,0,0,1,.92,2.19c0,1.4-1.12,2.46-5.58,2.47-7.77,0-2.36-2.81,3.16-5.16a11.52,11.52,0,0,1-1.55-2.08c-.48-1.23.34-2.46,1.43-3.27a4.73,4.73,0,0,1,1.93-.9c.82-.14,1.47.09,1.63.84a3.51,3.51,0,0,1-.87,2.44A.54.54,0,0,1,153.69,21Zm-1.34,3.75c-3.93,1.64-8.8,3.48-3.75,3.14,3.57-.24,4.63-.59,4.61-1.36A3.83,3.83,0,0,0,152.35,24.76Z"/>
            <path class="cls-2" d="M160.22,19.25a.56.56,0,0,1,.15.76A21.79,21.79,0,0,0,158,23.77a18.66,18.66,0,0,0,4.39-3.3.54.54,0,0,1,.81.71c-2.25,3.73-.93,3.55,1.36,0a.53.53,0,0,1,.76-.1.54.54,0,0,1,.11.76,18.66,18.66,0,0,1-2.06,2.38c-.69.65-1.31,1-1.76.72-.73-.36-.7-1.23-.43-2.09-1.92,1.48-4.56,3.26-4.48,1.75.06-1.22,2.72-5.21,2.73-5.22A.55.55,0,0,1,160.22,19.25Z"/>
            <path class="cls-2" d="M167.35,21a.54.54,0,0,1-.15-.75c.57-.85.76-1.36.71-1.6,0-.05-.16,0-.37,0a3.7,3.7,0,0,0-1.48.69c-.73.55-1.32,1.33-1.05,2a9.24,9.24,0,0,0,1.26,1.94l.12.15c3.23-1.34,6.2-2.39,6.23-2.4a.55.55,0,0,1,.36,1s-3,1.05-5.94,2.26a4.31,4.31,0,0,1,.91,2.19c0,1.4-1.11,2.46-5.58,2.47-7.77,0-2.36-2.81,3.17-5.16A10.64,10.64,0,0,1,164,21.75c-.48-1.23.34-2.46,1.43-3.27a4.73,4.73,0,0,1,1.93-.9c.82-.14,1.46.09,1.62.84a3.44,3.44,0,0,1-.86,2.44A.54.54,0,0,1,167.35,21ZM166,24.76c-3.92,1.64-8.8,3.48-3.75,3.14,3.58-.24,4.63-.59,4.62-1.36A3.86,3.86,0,0,0,166,24.76Z"/>
            <path class="cls-2" d="M172.65,24c.9.57,2.38.34,4.07-.25a40.36,40.36,0,0,0,5.7-2.71A.54.54,0,0,1,183,22a41.19,41.19,0,0,1-5.87,2.79c-2,.71-3.86.93-5.09.1l-.08-.07c-1.1-1.13-.79-2.8,0-4.19a7,7,0,0,1,1.32-1.6,3.41,3.41,0,0,1,1.59-.85,1.37,1.37,0,0,1,1.59.81c1.44,2.94-3.66,3.29-3.68,3.29C172,22.36,172.25,23.57,172.65,24Zm2.82-4.54a.38.38,0,0,0-.44-.22,2.29,2.29,0,0,0-1.05.6,5.39,5.39,0,0,0-1.1,1.33l-.06.1C173.49,21.2,176.11,20.79,175.47,19.47Z"/>
            <path class="cls-2" d="M183.47,19.66a.54.54,0,0,1,.11.76,11.53,11.53,0,0,0-2,3.64,1.15,1.15,0,0,0,0,.53h0a1.72,1.72,0,0,0,.81-.22c2.51-1.12,6.05-6,6.06-6.05a.55.55,0,0,1,.76-.12.54.54,0,0,1,.19.64c-.47,1.46-.94,2.84-1.43,4.15q1.74-1,3.66-1.92a.55.55,0,1,1,.48,1q-2.53,1.26-4.74,2.54c-4.21,10.78-8.86,16.53-12.27,18.79-2.15,1.42-3.91,1.52-4.9.64S169,41.38,170,39c1.66-3.83,6.56-9.44,16.42-15.19.31-.78.6-1.59.9-2.43a16.25,16.25,0,0,1-4.55,4,2.66,2.66,0,0,1-1.43.29,1,1,0,0,1-.87-.74,2.09,2.09,0,0,1,0-1.11,12.84,12.84,0,0,1,2.2-4A.54.54,0,0,1,183.47,19.66Zm2.33,5.83c-8.83,5.34-13.25,10.45-14.78,14-.8,1.86-.77,3.19-.14,3.75s1.89.37,3.57-.74C177.59,40.4,181.84,35.19,185.8,25.49Zm-4.26-.9Z"/>
            <path class="cls-2" d="M192.57,20a.55.55,0,0,1,.07.77,6.76,6.76,0,0,0-1.25,2,1.1,1.1,0,0,0-.09.57.25.25,0,0,0,.14.16,1.36,1.36,0,0,0,.51.08,9,9,0,0,0,2.74-.71,21.72,21.72,0,0,0,3.64-1.74A.54.54,0,1,1,199,22a21.94,21.94,0,0,1-3.88,1.88,9.93,9.93,0,0,1-3.13.79,2.36,2.36,0,0,1-1-.19,1.27,1.27,0,0,1-.73-.9,2.11,2.11,0,0,1,.1-1.17,8.14,8.14,0,0,1,1.45-2.32.57.57,0,0,1,.43-.2A.5.5,0,0,1,192.57,20Zm2.87-3.65A.55.55,0,0,1,195,17c-.85.19-1.61,1.79-1.61,1.8a.55.55,0,0,1-.73.25.54.54,0,0,1-.26-.72s1-2.09,2.36-2.4h.11A.53.53,0,0,1,195.44,16.34Z"/>
            <path class="cls-2" d="M203.42,7.71a.55.55,0,0,1,.29.72l-.81,2c9.3-.37,18.1.11,18.14.12a.55.55,0,0,1,.52.57.54.54,0,0,1-.57.51s-9.13-.5-18.53-.1c-2.68,6.71-8.53,22.47-6.25,26.62a.54.54,0,1,1-1,.52c-2.44-4.42,3.22-20,6-27.08a71,71,0,0,0-13.1,1.65c-2.86.73-3.9.89-3.89.93s.48-.16,1.19-.18a24.37,24.37,0,0,0,3.12-.34c.91-.17,1.66-.13,1.65-.2a.55.55,0,0,1,.43-.64.56.56,0,0,1,.64.44c.13.7-1,1.19-2.52,1.47a25.29,25.29,0,0,1-3.28.36c-1.22,0-2.16-.15-2.29-.64s1-1.33,4.68-2.26a75.05,75.05,0,0,1,13.81-1.7c.6-1.5,1-2.41,1-2.43a.54.54,0,0,1,.5-.33A.52.52,0,0,1,203.42,7.71Z"/>
            <path class="cls-2" d="M205.18,19.88l.31-.29a.54.54,0,0,1,.77,0,.56.56,0,0,1,.14.41h0s-.17,2.42.94,2.22,2.3-1.43,3.2-2.3c.58-.56,2.06-1.93,2.55-1.78.62.37-.17,2.12-.61,3.48,1.79-2.12,4.56-4.93,4.65-2.28.06,1.9.29,3,.9,3.3s1.92-.21,4-1.6a.55.55,0,0,1,.75.16.55.55,0,0,1-.15.75c-2.45,1.61-4,2.15-5.07,1.68s-1.45-1.78-1.52-4.11c0-.69-3.86,4.17-4.22,4.64a.56.56,0,0,1-.59.24.54.54,0,0,1-.4-.66s.83-2.9,1.17-3.76c0,0-.31.31-.74.73-1,1-2.43,2.35-3.76,2.59-1.54.27-2-1.09-2.17-2.16-1.46,1.25-4.29,3.39-4.68,1.69a1.65,1.65,0,0,1,0-.88A3.89,3.89,0,0,1,202,20.24a4.91,4.91,0,0,1,1.87-1,1.76,1.76,0,0,1,.91,0A.55.55,0,0,1,205.18,19.88Zm-.69.42a.65.65,0,0,0-.36,0,4,4,0,0,0-1.42.76,2.71,2.71,0,0,0-.93,1.2.64.64,0,0,0,0,.33c.07.3,1.88-1.31,2.95-2.29A.75.75,0,0,1,204.49,20.3Z"/>
        </g>
    </g>
</svg>