<svg xmlns="http://www.w3.org/2000/svg" viewBox="0 0 159.79 266">
    <defs>
        <style>.cls-1{fill:#010101;stroke:#010101;stroke-miterlimit:10;}</style>
    </defs>
    <g id="Layer_2" data-name="Layer 2">
        <g id="Layer_1-2" data-name="Layer 1">
            <path class="cls-1" d="M159.29,18.38a14.39,14.39,0,0,1-.11,1.88h.11V158.38a107.14,107.14,0,0,1-74.41,102,104.39,104.39,0,0,1-30,5,4.83,4.83,0,0,0,1.09.08H52.18A51.73,51.73,0,0,1,1.74,225.13,53.4,53.4,0,0,1,.5,213.82,51.71,51.71,0,0,1,1.78,202.4,66.12,66.12,0,0,0,49.4,225.06h.49c.56,0,1.2,0,1.8,0h.83c1,0,2.06,0,3.08-.12l1.58-.11c1-.07,2-.19,3-.3.45,0,.94-.11,1.39-.19,1.2-.19,2.36-.37,3.53-.64h.07c1.17-.22,2.34-.52,3.46-.82.19,0,.38-.12.57-.15a.1.1,0,0,1,.07,0c1.43-.3,2.82-.68,4.21-1.09a15.28,15.28,0,0,0,1.65-.56,61.07,61.07,0,0,0,27.59-18.2A61.72,61.72,0,0,0,115.62,179s0,0,0-.08a63.56,63.56,0,0,0,2.29-16.8V47A51.61,51.61,0,0,1,152,2.64a46.27,46.27,0,0,1,7.29-2Z"/>
        </g>
    </g>
</svg>